<svg xmlns="http://www.w3.org/2000/svg" aria-hidden="true" style="position:absolute;width:0;height:0;overflow:hidden">
  <defs>
    <symbol id="icon-antenna-1" viewBox="0 0 32 32">
      <path fill="#2e2f42" d="m31 22-9-8 1-5h1a2 2 0 1 0-2-1h-5L9 0H8L7 2l1 1a15 15 0 0 0 2 18v7H4q-3 0-3 2v1l1 1h24l1-1v-1l-3-2h-6v-3l10-1h1v1-1zM23 6a1 1 0 1 1 1 2 1 1 0 0 1-1-2m-1 4-1 3-1-1zm-1-1-2 2-1-2zm3 20 2 1v1H2v-1l2-1zm-7-2zh-6v-1zm-6-1v-4q0-3 3-3 4 0 3 3v4zm7-2v-2q0-3-4-4l-3 2Q5 13 8 4l19 19q-4 2-9 1m11-1L8 2l1-1 8 8z" style="fill:var(--color1, #2e2f42)"/>
      <path fill="rgba(77, 90, 229, 1)" d="M14 20a2 2 0 1 0 0 3 2 2 0 1 0 0-3m0 2z" style="fill:var(--color2, #4d5ae5)"/>
    </symbol>

    <symbol id="icon-astronaut-1" viewBox="0 0 32 32">
      <path fill="#4d5ae5" d="M32 5zh-2l-1-2h-1l-1 2h-2v1l1 1v3h1l1-1 2 1 1-1-1-2zm-2 1zl1 1h-3V6l-1-1h2V4l1 1zM26 21zM26 23zM27 22zM25 22h-1v1zM22 26zv1h1zM22 29zM23 27zv2h1zM21 27zv2h1zM16 24h-1v1h1zM16 26h-1v1h1zM17 25h-1v1h1zM15 25h-1v1h1zM6 6H5v1h1zM6 8H5v1h1zM7 7H6v1h1zM5 7H4v1h1z" style="fill:var(--color2, #4d5ae5)"/>
      <path fill="#2e2f42" d="m25 14-1-1-2 1-1 1-2 1h-1a7 7 0 0 0-3-14 7 7 0 0 0-6 11H6l-3 2-2 1 1 3h1l1-1 2-1h2l-6 5-1 2v2h2l2-1 1-2 1 1-2 2-1 1v3h2l4-4 1-1 5-6 4 1 3-2 2-1zM2 18l-1-1 2-1v1zm4-2-2 1v-2l2-1zm15-7-1 3-4-2-1-1 2-5q4 1 4 5M9 9a6 6 0 0 1 7-5l-2 4a2 2 0 1 0 0 4l2-1 4 2A6 6 0 0 1 9 9m6 1a1 1 0 0 1-2 0 1 1 0 0 1 2 0M2 25zl1-1v1zm4 4H5v-1l1-1 1 1zm3-4-2 2v-1zl-1-2H6l-2 1H3l3-3 4 4zm7-7-5 5-5-5 3-2v-1H7v-2h3l6 2 3 1v2zm4 1v-2l1-1 1 1zm4-3-1 1-1-2h1q0-1 0 0z" style="fill:var(--color1, #2e2f42)"/>
      <path fill="#2e2f42" d="m14 19-3-3-2 3 2 2zm-3 1-1-1 1-1 1 1zM17 5v1l2 2h1q-1-3-3-3M20 9h-1v1h1z" style="fill:var(--color1, #2e2f42)"/>
    </symbol>

    <symbol id="icon-clock-1" viewBox="0 0 32 32">
      <path fill="#2e2f42" d="M31 15a15 15 0 1 0-19 15v-1l4-12a2 2 0 1 0-1-3l-5-6-1 1 5 5 1 3-4 11a14 14 0 1 1 11 0l-1-2h-1l-4 3 1 1 5 2v-3q9-4 9-14m-15 0a1 1 0 1 1 0 1zm2 15 2-2 1 2z" style="fill:var(--color1, #2e2f42)"/>
      <path fill="#4d5ae5" d="M15 3v1a1 1 0 1 0 2 0V3a1 1 0 0 0-2 0M4 15zh1a1 1 0 1 0 0-1zM28 16a1 1 0 1 0 0-1h-1v1z" style="fill:var(--color2, #4d5ae5)"/>
    </symbol>

    <symbol id="icon-diagram-1" viewBox="0 0 32 32">
      <path fill="#4d5ae5" d="M15 15zv5h-1zM19 17h1v3h-1zM11 19zM7 18h2v2H7z" style="fill:var(--color2, #4d5ae5)"/>
      <path fill="#2e2f42" d="M2 28h25l2-1v-2l-2-2V10l3-3a2 2 0 1 0-1-1l-2 2V7l-2-2H4L2 7v16l-2 2v2zM30 5a1 1 0 1 1 0 1zM3 7zh21l1 1v2l-1 1V8H4v13l1 1h19l1-1v-9l1-1v12H3zm5 7a2 2 0 1 0 1 3l2 1 1-1 4-4 3 3h1l3-3v8H5V9h18v2l-3 4-4-3h-1l-4 4h-1v-1zm1 1a1 1 0 1 1-2 0 1 1 0 0 1 2 0m3 9h5v1h-5zM1 25zh9v1l1 1h5l1-1v-1h9l1 1v2H1z" style="fill:var(--color1, #2e2f42)"/>
    </symbol>

    <symbol id="icon-facebook-1" viewBox="0 0 32 32">
      <path fill="#f4f4fd" d="M21 5h3V0h-4q-6 0-7 8v4H8v6h5v14h6V18h4l1-6h-5V8q-1-3 2-3" style="fill:var(--color3, #f4f4fd)"/>
    </symbol>

    <symbol id="icon-instagram-2" viewBox="0 0 32 32">
      <path fill="#f4f4fd" d="m32 9-1-3q0-3-2-3l-2-2-4-1L6 1 3 3Q1 3 1 6L0 9l1 17q0 3 2 3l3 2 3 1 18-1q3-1 4-5l1-3V9m-3 13v3q-1 3-4 3l-2 1-16-1-2-1-1-2-1-3L4 7l1-2 2-1 3-1 16 1 1 1 2 2v15" style="fill:var(--color3, #f4f4fd)"/>
      <path fill="#f4f4fd" d="M16 8a8 8 0 1 0 0 16 8 8 0 0 0 0-16m0 13a5 5 0 1 1 0-10 5 5 0 0 1 0 10M27 7a2 2 0 1 1-4 0 2 2 0 0 1 4 0" style="fill:var(--color3, #f4f4fd)"/>
    </symbol>

    <symbol id="icon-linkedin-1" viewBox="0 0 32 32">
      <path fill="#f4f4fd" d="M32 32V20q1-9-8-10-4 1-6 4v-3h-7v21h7V21q-1-4 4-5 4 1 3 6v10zM1 11h6v21H1zM4 0Q1 1 0 4q0 4 4 4 4-1 4-4T4 0" style="fill:var(--color3, #f4f4fd)"/>
    </symbol>
    
    <symbol id="icon-twitter-1" viewBox="0 0 32 32">
      <path fill="#f4f4fd" d="m32 6-4 1q3-1 3-4l-4 2a7 7 0 0 0-11 6Q7 11 2 4a7 7 0 0 0 2 9l-3-1q1 5 6 7H4q1 3 6 4a13 13 0 0 1-10 3q4 3 10 3A19 19 0 0 0 29 9z" style="fill:var(--color3, #f4f4fd)"/>
    </symbol>
    
  </defs>
</svg>